<svg xmlns="http://www.w3.org/2000/svg" width="17" height="37" viewBox="0 0 17 37">
	<path fill="currentColor" d="M16.452 1.027c.15-.153.67.384.521.537-1.861 5.219-3.276 9.746-4.84 16.039-.074.306-.149.613-.149.92.67 5.372 1.713 10.82 2.755 17.19.075.307-.67.383-.819.153-1.713-2.379-3.425-5.218-5.361-7.98-2.83-4.144-4.32-6.293-7.447-10.283-.15-.23-.15-.23 0-.46C6.92 10.85 11.537 6.322 16.452 1.026zm-2.904 32.844c-.745-4.528-1.862-11.28-2.457-15.808 1.042-4.45 2.531-9.285 4.02-13.736l-.074-.077c-1.936 2.916-6.255 9.976-7.819 13.506-.149.384-.149.384-.074.614 2.01 4.681 4.393 11.127 6.255 15.501h.149zM8.931 17.679c-.075.307 0 .614.074 1.075.224 1.304.596 2.685.894 3.99-.67-1.765-1.266-3.376-2.01-5.065v-.153c1.489-3.223 2.978-5.909 4.69-8.825-1.34 2.916-2.754 5.832-3.648 8.978zm.67-.383c.894-3.07 1.936-5.218 3.277-8.058-.82 2.763-1.639 5.295-2.309 8.134-.074.46-.223.768-.149 1.305.15 1.535.373 3.07.596 4.68-.521-1.84-.82-2.838-1.266-4.603-.149-.614-.223-1.151-.149-1.458z"/>
</svg>
