<svg width="19" height="37" viewBox="0 0 19 37" fill="none" xmlns="http://www.w3.org/2000/svg">
<path fill-rule="evenodd" clip-rule="evenodd" d="M1.08235 17.2624C0.779533 17.5988 0.792098 17.8384 1.30493 18.4524C3.26802 20.7529 5.48752 23.3603 7.88774 26.3587C10.8008 29.9712 12.5915 32.0403 15.6054 36.0481C15.6937 36.2037 16.3077 35.6908 16.2068 35.2956C14.3669 27.7015 12.813 19.4515 12.6242 17.3785L12.6159 17.2188C13.8114 10.9876 14.8381 7.64935 16.6309 0.585838C16.694 0.262089 16.2694 -0.196329 15.9666 0.13998C12.5219 4.72655 6.01564 12.0371 1.08235 17.2624ZM14.9038 33.3611C10.6246 28.1379 6.08896 22.6077 2.07453 17.8513C1.90219 17.62 1.97371 17.4561 2.04941 17.372C6.44022 12.4955 10.4567 8.1193 15.4995 1.92689L15.5836 2.00258C12.6392 6.96348 9.60651 11.7688 6.30871 17.6294C8.49856 21.1997 13.2941 30.161 14.9795 33.2771L14.9038 33.3611ZM5.47212 16.9523C5.9096 16.1283 7.91172 13.0593 8.50479 12.147C7.60472 13.3157 5.36712 16.4771 4.54694 17.6416C6.8882 21.0438 9.22108 24.2861 11.39 27.457C9.61216 24.1054 7.68291 20.922 6.37151 18.8278C5.50143 17.5115 5.3249 17.2003 5.47212 16.9523ZM3.74804 17.6835C3.57569 17.4522 3.57569 17.4522 3.72291 17.2042C4.24447 16.4558 6.04461 14.1184 6.49046 13.4542L2.78934 17.7338C5.53843 21.2747 8.52719 24.8031 11.4361 28.3358C9.00653 24.778 6.84599 21.767 3.74804 17.6835Z" fill="currentColor"/>
</svg>
