<svg width="19" height="38" viewBox="0 0 19 38" fill="none" xmlns="http://www.w3.org/2000/svg">
<path fill-rule="evenodd" clip-rule="evenodd" d="M17.4098 18.2605C17.7127 18.5968 17.7001 18.8365 17.1872 19.4505C15.2241 21.7509 13.0047 24.3583 10.6045 27.3568C7.69145 30.9693 5.90063 33.0384 2.88675 37.0461C2.79849 37.2017 2.18447 36.6889 2.2853 36.2936C4.12526 28.6995 5.67918 20.4496 5.86793 18.3766L5.8763 18.2168C4.68077 11.9857 3.65408 8.6474 1.86129 1.5839C1.79815 1.26015 2.22274 0.801729 2.52555 1.13804C5.97023 5.7246 12.4766 13.0351 17.4098 18.2605ZM3.5884 34.3592C7.86762 29.136 12.4033 23.6058 16.4177 18.8494C16.59 18.6181 16.5185 18.4541 16.4428 18.37C12.052 13.4936 8.03556 9.11735 2.99273 2.92495L2.90858 3.00063C5.85298 7.96153 8.88572 12.7668 12.1835 18.6275C9.99367 22.1977 5.19801 31.1591 3.51262 34.2751L3.5884 34.3592ZM13.02 17.9503C12.5826 17.1263 10.5804 14.0573 9.98734 13.145C10.8874 14.3137 13.1251 17.4752 13.9453 18.6397C11.604 22.0418 9.27109 25.2842 7.10217 28.455C8.88001 25.1035 10.8093 21.9201 12.1207 19.8258C12.9908 18.5096 13.1673 18.1984 13.02 17.9503ZM14.7441 18.6816C14.9165 18.4503 14.9165 18.4502 14.7693 18.2022C14.2477 17.4539 12.4476 15.1165 12.0018 14.4522L15.7028 18.7318C12.9537 22.2728 9.96498 25.8012 7.05611 29.3338C9.48564 25.7761 11.6462 22.765 14.7441 18.6816Z" fill="currentColor"/>
</svg>
