<svg width="205" height="54" viewBox="0 0 205 54" fill="none" xmlns="http://www.w3.org/2000/svg">
<path d="M102.5 52.9998C103.052 52.9998 103.5 52.552 103.5 51.9998C103.5 51.4475 103.052 50.9998 102.5 50.9998V52.9998ZM158.684 47.0242C158.365 47.4749 158.471 48.099 158.922 48.4182L166.267 53.6197C166.717 53.9389 167.342 53.8323 167.661 53.3816C167.98 52.9309 167.873 52.3068 167.423 51.9876L160.894 47.364L165.518 40.8354C165.837 40.3847 165.73 39.7606 165.279 39.4414C164.829 39.1222 164.205 39.2288 163.885 39.6795L158.684 47.0242ZM102.5 50.9998C74.529 50.9998 49.2397 48.1505 30.9723 43.5611C21.831 41.2645 14.5043 38.5459 9.48706 35.5657C4.40424 32.5467 2 29.4512 2 26.4998H0C0 30.59 3.27615 34.2028 8.46569 37.2853C13.7208 40.4067 21.2585 43.1828 30.485 45.5008C48.9534 50.1407 74.4141 52.9998 102.5 52.9998V50.9998ZM2 26.4998C2 23.5484 4.40424 20.4529 9.48706 17.4338C14.5043 14.4536 21.831 11.735 30.9723 9.43839C49.2397 4.84906 74.529 1.99976 102.5 1.99976V-0.000244141C74.4141 -0.000244141 48.9534 2.85882 30.485 7.49867C21.2585 9.81667 13.7208 12.5928 8.46569 15.7142C3.27615 18.7967 0 22.4095 0 26.4998H2ZM102.5 1.99976C130.471 1.99976 155.76 4.84906 174.028 9.43839C183.169 11.735 190.496 14.4536 195.513 17.4338C200.596 20.4529 203 23.5484 203 26.4998H205C205 22.4095 201.724 18.7967 196.534 15.7142C191.279 12.5928 183.742 9.81667 174.515 7.49867C156.047 2.85882 130.586 -0.000244141 102.5 -0.000244141V1.99976ZM203 26.4998C203 28.3328 202.083 30.2203 200.124 32.1393C198.163 34.0604 195.23 35.9366 191.401 37.714C183.747 41.2664 172.719 44.3295 159.332 46.6164L159.668 48.5878C173.139 46.2868 184.361 43.1861 192.243 39.5281C196.181 37.7002 199.338 35.7094 201.524 33.5681C203.712 31.4246 205 29.0541 205 26.4998H203Z" fill="white"/>
</svg>
