<svg width="20" height="13" viewBox="0 0 20 13" fill="none" xmlns="http://www.w3.org/2000/svg">
<path d="M0.163336 5.22075L2.08769 3.80526C2.1717 3.74218 2.27972 3.71458 2.38374 3.73035C2.48776 3.74612 2.58378 3.80132 2.64779 3.88412L6.31646 8.72594L17.9106 0.0792637C17.9946 0.016178 18.1026 -0.0114215 18.2066 0.00434996C18.3107 0.0201214 18.4067 0.0753211 18.4707 0.158121L19.9189 2.04281C20.051 2.21629 20.019 2.46469 19.8429 2.59481L5.9964 12.9211C5.92839 12.9724 5.84037 13 5.75636 13C5.73635 13 5.72035 13 5.70035 12.9961C5.59633 12.9803 5.50031 12.9251 5.4363 12.8423L0.0793202 5.77275C-0.052704 5.59926 -0.016697 5.35086 0.163336 5.22075Z" fill="black"/>
</svg>
