<svg xmlns="http://www.w3.org/2000/svg" width="40" height="16" viewBox="0 0 40 16">
	<g fill="none" fill-rule="evenodd">
		<path fill="#0AF" d="M3.594 1l-.649 1.77h8.995L12.59 1H3.593zm-.972 2.653l-.65 1.77h8.994l.648-1.77H2.622zm-.974 2.653L1 8.074h8.993l.65-1.768H1.648z"/>
		<path fill="#002882" d="M19.57 9.139v.038c.408.152.797.418 1 .59.63.533.907 1.236.907 2.15 0 1.503-.777 2.588-2.054 2.931-.389.114-.796.152-1.555.152H14V4h3.424c.703 0 1.185.04 1.61.153 1.24.343 2.055 1.218 2.055 2.607 0 .742-.26 1.37-.685 1.79-.185.19-.445.418-.833.589zm-3.422 1.16v2.894h1.48c.443 0 .85-.038 1.147-.324.296-.286.426-.647.426-1.123 0-.36-.093-.704-.278-.952-.314-.4-.703-.494-1.37-.494h-1.405zm-.019-1.903h1.202c.37 0 .556 0 .74-.057.5-.152.816-.608.816-1.236 0-.743-.334-1.067-.816-1.218-.203-.057-.407-.076-.814-.076H16.13v2.587zM24.698 15V5.847h-3.091V4h8.588l-.612 1.847h-2.739V15h-2.146zm6.162 0V4h6.96l-.61 1.847h-4.22v2.436h1.72c1.389 0 2.11.342 2.61.78.389.343 1.054 1.103 1.054 2.607 0 1.485-.684 2.303-1.258 2.722-.667.475-1.37.608-2.795.608h-3.46zm2.13-1.845h1.61c.61 0 .98-.153 1.24-.495.13-.172.314-.474.314-1.047 0-.57-.185-.97-.555-1.256-.222-.172-.519-.265-1.018-.265h-1.592v3.063z"/>
	</g>
</svg>
