<svg xmlns="http://www.w3.org/2000/svg" width="178" height="25" fill="none" viewBox="0 0 178 25">
	<g fill="currentColor" fill-rule="evenodd" clip-path="url(#clip0)" clip-rule="evenodd">
		<path d="M0 .339v20.487L19.591.34H0zm1.752 22.357h19.591V2.22L1.752 22.696zM36.463 7.503c0 2.337-1.302 3.506-3.757 3.506h-2.65V3.927h2.65c2.558 0 3.757 1.087 3.757 3.412v.164zM32.706.373h-6.915v22.311h4.276v-8.333h2.731c5.002 0 7.871-2.512 7.871-6.883v-.129c0-4.429-2.904-7.012-7.951-7.012l-.012.047zm14.878 12.109h3.123c2.57 0 3.815 1.063 3.815 3.26v.117c0 2.186-1.233 3.296-3.665 3.296h-3.273v-6.673zm3.457-3.343h-3.457V3.997h9.289V.374H43.332v22.31h7.663c4.887 0 7.687-2.477 7.687-6.79v-.128c0-4.278-2.697-6.627-7.606-6.627h-.035zm18.197 1.882L78.078.339h-4.702l-7.687 9.618V.374h-4.322v22.31h4.322v-9.828l7.767 9.875h5.094l-9.312-11.71zm10.822.666v-.269C80.06 4.792 84.312 0 90.11 0c4.459 0 8.227 2.466 8.677 7.316h-2.57c-.565-3.4-2.432-5.154-6.073-5.154-4.426 0-7.388 3.6-7.388 9.221v.304c0 5.692 2.755 9.127 7.353 9.127 3.457 0 5.924-1.834 6.465-5.469h2.42c-.749 5.166-4.16 7.702-8.943 7.702-6.188 0-9.991-4.441-9.991-11.325v-.035zm27.278-9.127h-6.223V.338h15.039v2.22h-6.223v20.149h-2.593V2.559zm12.377 20.148V.338h2.605v18.618L133.844.34h2.604v22.369h-2.604V4.102L122.32 22.72h-2.605v-.011zm21.355.257a2.11 2.11 0 01-1.153-.257V20.09a4.19 4.19 0 001.153.117c1.705 0 2.305-1.847 2.627-5.563.45-6.194.507-14.305.507-14.305h12.862v22.38h-2.64V2.63h-7.859c0 2.876-.208 7.948-.484 12.237-.277 4.289-1.279 8.099-5.013 8.099zm27.658-2.443c2.893 0 4.691-1.309 4.691-4.476v-.117c0-2.886-1.648-4.324-4.691-4.324h-3.653v8.917h3.653zM162.493.34h2.605v9.104h3.457c4.068 0 7.48 1.73 7.48 6.475v.128c0 4.675-3.389 6.662-7.48 6.662h-6.062V.338z"/>
	</g>
	<defs>
		<clipPath id="clip0">
			<path fill="#fff" d="M0 0h176v23H0z"/>
		</clipPath>
	</defs>
</svg>
