<svg width="16" height="16" viewBox="0 0 16 16" fill="none" xmlns="http://www.w3.org/2000/svg">
<g clip-path="url(#clip0)">
<path d="M9.79561 8L3.49489 14.3006C3.38809 14.4074 3.33463 14.5304 3.33463 14.6693C3.33463 14.8083 3.38803 14.9312 3.49489 15.0379L4.29659 15.8396C4.4035 15.9464 4.52642 16 4.66501 16C4.80399 16 4.92691 15.9464 5.03377 15.8396L12.5049 8.36881C12.6118 8.26195 12.665 8.13898 12.665 8.00006C12.665 7.86108 12.6118 7.73816 12.5049 7.6313L5.03416 0.160542C4.92713 0.053514 4.8041 0.000112792 4.66518 0.00011278C4.52643 0.000112768 4.40351 0.0535139 4.29665 0.160541L3.49495 0.961676C3.38815 1.06853 3.33486 1.19157 3.33486 1.3306C3.33486 1.46941 3.38809 1.59233 3.49495 1.69919L9.79561 8Z" fill="black"/>
</g>
<defs>
<clipPath id="clip0">
<rect width="16" height="16" fill="white" transform="translate(16 16) rotate(-180)"/>
</clipPath>
</defs>
</svg>
