<svg width="15" height="26" viewBox="0 0 15 26" fill="currentColor" xmlns="http://www.w3.org/2000/svg">
<path d="M7.42417 0.984863C3.8287 0.984863 0.914062 3.85351 0.914062 7.39204C0.914062 10.9307 3.8287 13.7995 7.42417 13.7995C11.0196 13.7995 13.9343 10.9307 13.9343 7.39204C13.9343 3.85351 11.0196 0.984863 7.42417 0.984863ZM7.42417 10.0408C5.93793 10.0408 4.73304 8.85488 4.73304 7.39213C4.73304 5.92939 5.93793 4.74355 7.42417 4.74355C8.91042 4.74355 10.1153 5.92939 10.1153 7.39213C10.1153 8.85488 8.91042 10.0408 7.42417 10.0408Z" fill="currentColor"/>
<path d="M9.72213 18.8975C12.3284 18.3749 13.8902 17.1602 13.9728 17.095C14.7355 16.4931 14.858 15.3966 14.2464 14.646C13.6348 13.8954 12.5209 13.7748 11.758 14.3767C11.7419 14.3895 10.0762 15.6471 7.33537 15.649C4.59467 15.6471 2.89368 14.3895 2.87756 14.3767C2.11474 13.7748 1.00078 13.8954 0.389248 14.646C-0.222373 15.3966 -0.0998621 16.4931 0.662778 17.095C0.746532 17.1611 2.3728 18.4075 5.0521 18.9178L1.318 22.7585C0.639394 23.4511 0.659797 24.554 1.36356 25.2219C1.70705 25.5478 2.14977 25.7098 2.59211 25.7098C3.05588 25.7098 3.51919 25.5315 3.8665 25.1769L7.33546 21.54L11.1548 25.2005C11.8468 25.8805 12.9674 25.8794 13.6581 25.1986C14.3488 24.5177 14.348 23.4146 13.6562 22.7348L9.72213 18.8975Z" fill="currentColor"/>
</svg>
