<svg width="16" height="16" viewBox="0 0 16 16" fill="none" xmlns="http://www.w3.org/2000/svg">
<path d="M6.20439 8L12.5051 1.69941C12.6119 1.59255 12.6654 1.46958 12.6654 1.33066C12.6654 1.19173 12.612 1.06876 12.5051 0.962125L11.7034 0.160429C11.5965 0.0536261 11.4736 0 11.335 0C11.196 0 11.0731 0.0536261 10.9662 0.160429L3.49511 7.63119C3.38825 7.73805 3.33496 7.86102 3.33496 7.99994C3.33496 8.13892 3.38825 8.26184 3.49511 8.3687L10.9658 15.8395C11.0729 15.9465 11.1959 15.9999 11.3348 15.9999C11.4736 15.9999 11.5965 15.9465 11.7034 15.8395L12.5051 15.0383C12.6119 14.9315 12.6651 14.8084 12.6651 14.6694C12.6651 14.5306 12.6119 14.4077 12.5051 14.3008L6.20439 8Z" fill="black"/>
</svg>
