<svg width="27" height="26" viewBox="0 0 27 26" fill="none" xmlns="http://www.w3.org/2000/svg">
<circle cx="13.3281" cy="12.9175" r="12.4175" transform="rotate(90 13.3281 12.9175)" fill="black" stroke="black"/>
<path d="M15.2875 8.5325L16.4604 8.5325L16.4604 6.24417C16.4604 6.24417 15.3958 6.06445 14.3672 6.06445C12.2259 6.06445 10.8304 7.35239 10.8304 9.69464L10.8304 11.7434L8.46045 11.7434L8.46045 14.4331L10.8364 14.4331L10.8364 20.9446C11.3176 21.0225 11.8108 21.0645 12.3161 21.0645L13.7717 20.9446L13.7717 14.4331L15.9492 14.4331L16.3582 11.7434L13.7657 11.7434L13.7657 9.99417C13.7657 9.25734 14.1266 8.5325 15.2875 8.5325Z" fill="white"/>
</svg>
