<svg width="26" height="26" viewBox="0 0 26 26" fill="none" xmlns="http://www.w3.org/2000/svg">
<circle cx="12.917" cy="12.9175" r="12.4175" transform="rotate(90 12.917 12.9175)" fill="black" stroke="black"/>
<path fill-rule="evenodd" clip-rule="evenodd" d="M16.5588 15.4344C16.5157 15.4687 15.7004 16.1074 14.34 16.3821L16.3935 18.3998C16.7547 18.7572 16.7551 19.3372 16.3945 19.6952C16.034 20.0532 15.4491 20.0537 15.0878 19.6962L13.0942 17.7716L11.2834 19.6838C11.1021 19.8703 10.8603 19.964 10.6182 19.964C10.3873 19.964 10.1562 19.8788 9.9769 19.7075C9.60954 19.3563 9.59889 18.7764 9.95312 18.4122L11.9023 16.3928C10.5037 16.1245 9.65482 15.4692 9.6111 15.4344C9.21301 15.1179 9.14906 14.5414 9.46832 14.1467C9.78753 13.752 10.369 13.6886 10.7672 14.0051C10.7756 14.0118 11.6635 14.6731 13.0941 14.6741C14.5248 14.6731 15.3943 14.0118 15.4027 14.0051C15.8009 13.6886 16.3824 13.752 16.7016 14.1467C17.0209 14.5414 16.9569 15.1179 16.5588 15.4344ZM9.7417 10.3331C9.7417 8.47264 11.2631 6.96436 13.1399 6.96436C15.0167 6.96436 16.5381 8.47264 16.5381 10.3331C16.5381 12.1937 15.0167 13.7021 13.1399 13.7021C11.2631 13.7021 9.7417 12.1937 9.7417 10.3331ZM11.7352 10.3332C11.7352 11.1023 12.3641 11.7258 13.1399 11.7258C13.9157 11.7258 14.5447 11.1023 14.5447 10.3332C14.5447 9.56411 13.9157 8.94061 13.1399 8.94061C12.3641 8.94061 11.7352 9.56411 11.7352 10.3332Z" fill="white"/>
</svg>
