<svg width="26" height="26" viewBox="0 0 26 26" fill="none" xmlns="http://www.w3.org/2000/svg">
<circle cx="12.917" cy="12.9175" r="12.4175" transform="rotate(90 12.917 12.9175)" fill="black" stroke="black"/>
<path fill-rule="evenodd" clip-rule="evenodd" d="M19.8345 9.77539C19.3554 9.97558 18.8415 10.1115 18.3023 10.1721C18.8531 9.85987 19.2759 9.36401 19.4737 8.77448C18.9579 9.06465 18.3877 9.27402 17.7806 9.38788C17.2938 8.89752 16.6014 8.59082 15.8334 8.59082C14.3614 8.59082 13.1667 9.72213 13.1667 11.1161C13.1667 11.3144 13.19 11.5073 13.2365 11.6909C11.0198 11.5862 9.05512 10.5798 7.74019 9.05179C7.51133 9.42461 7.37945 9.85804 7.37945 10.3208C7.37945 11.1969 7.85073 11.9701 8.56638 12.4219C8.13001 12.409 7.71885 12.2951 7.35812 12.106C7.35812 12.117 7.35812 12.1262 7.35812 12.1372C7.35812 13.3603 8.27741 14.3815 9.49731 14.6129C9.27428 14.6698 9.03767 14.701 8.79524 14.701C8.62263 14.701 8.45584 14.6845 8.29292 14.6551C8.63232 15.6579 9.61755 16.3888 10.7832 16.409C9.86968 17.0867 8.72154 17.4907 7.47061 17.4907C7.25533 17.4907 7.04393 17.4779 6.83447 17.4558C8.01365 18.1721 9.41585 18.5908 10.9228 18.5908C15.8276 18.5908 18.5098 14.7433 18.5098 11.4062C18.5098 11.2961 18.5079 11.1877 18.5021 11.0793C19.0238 10.7231 19.4757 10.2786 19.8325 9.77172L19.8345 9.77539Z" fill="white"/>
</svg>
