<svg width="26" height="26" viewBox="0 0 26 26" fill="none" xmlns="http://www.w3.org/2000/svg">
<circle cx="12.917" cy="12.982" r="12.4175" transform="rotate(90 12.917 12.982)" fill="black" stroke="black"/>
<path fill-rule="evenodd" clip-rule="evenodd" d="M18.7037 10.3889C18.7986 10.0782 18.7037 9.84936 18.2764 9.84936H16.8577C16.499 9.84936 16.3355 10.051 16.2406 10.2635C16.2406 10.2635 15.5127 12.0837 14.4895 13.2663C14.1573 13.6096 14.0096 13.724 13.8303 13.724C13.7353 13.724 13.6087 13.6096 13.6087 13.2989V10.3725C13.6087 10.0019 13.498 9.83301 13.1973 9.83301H10.9663C10.7448 9.83301 10.6077 10.0019 10.6077 10.1763C10.6077 10.5306 11.1193 10.6177 11.172 11.615V13.7785C11.172 14.2472 11.0876 14.3344 10.9083 14.3344C10.4284 14.3344 9.25748 12.4979 8.55601 10.4052C8.41888 9.99105 8.28174 9.83846 7.9231 9.83846H6.4885C6.07711 9.83846 6.00854 10.0401 6.00854 10.2526C6.00854 10.6341 6.4885 12.5742 8.25537 15.13C9.42626 16.8793 11.0929 17.8167 12.5908 17.8167C13.498 17.8167 13.6087 17.6041 13.6087 17.2499V15.9257C13.6087 15.5006 13.6931 15.4297 13.9779 15.4297C14.1836 15.4297 14.5581 15.5442 15.3967 16.3834C16.3619 17.3807 16.5254 17.833 17.0634 17.833H18.4821C18.8935 17.833 19.0887 17.6205 18.9779 17.2063C18.8566 16.7921 18.3872 16.1981 17.7807 15.4842C17.4484 15.0864 16.9526 14.645 16.8049 14.4325C16.5992 14.1491 16.652 14.0346 16.8049 13.7785C16.7891 13.7731 18.5243 11.239 18.7037 10.3889Z" fill="white"/>
</svg>
