<svg width="25" height="20" viewBox="0 0 25 20" fill="currentColor" xmlns="http://www.w3.org/2000/svg">
<path fill-rule="evenodd" clip-rule="evenodd" d="M24.2886 2.50731C23.3936 2.90074 22.4333 3.16784 21.426 3.28695C22.4551 2.67334 23.245 1.69879 23.6146 0.540146C22.6507 1.11044 21.5854 1.52192 20.4513 1.74571C19.5417 0.78198 18.2481 0.179199 16.8132 0.179199C14.063 0.179199 11.8309 2.40263 11.8309 5.14222C11.8309 5.53204 11.8743 5.91103 11.9613 6.27198C7.8196 6.06624 4.14895 4.08825 1.69219 1.08518C1.26462 1.8179 1.01821 2.66973 1.01821 3.57932C1.01821 5.30103 1.89873 6.82062 3.23582 7.70855C2.42052 7.68328 1.65233 7.4595 0.978356 7.08772C0.978356 7.10938 0.978356 7.12743 0.978356 7.14908C0.978356 9.55299 2.69591 11.5599 4.97512 12.0146C4.55841 12.1265 4.11634 12.1879 3.6634 12.1879C3.3409 12.1879 3.02928 12.1554 2.7249 12.0977C3.35902 14.0684 5.19978 15.505 7.37753 15.5447C5.67084 16.8766 3.5257 17.6707 1.18852 17.6707C0.786308 17.6707 0.391342 17.6454 0 17.6021C2.20311 19.0098 4.82293 19.8328 7.63842 19.8328C16.8024 19.8328 21.8137 12.2709 21.8137 5.71251C21.8137 5.49595 21.8101 5.28299 21.7992 5.07003C22.7739 4.36979 23.6182 3.4963 24.285 2.50009L24.2886 2.50731Z" fill="currentColor"/>
</svg>
