<svg width="26" height="16" viewBox="0 0 26 16" fill="currentColor" xmlns="http://www.w3.org/2000/svg">
<path fill-rule="evenodd" clip-rule="evenodd" d="M24.8421 1.53591C25.0278 0.952243 24.8421 0.522174 24.0061 0.522174H21.2298C20.528 0.522174 20.208 0.901045 20.0223 1.3004C20.0223 1.3004 18.598 4.72047 16.5958 6.9425C15.9456 7.5876 15.6566 7.80264 15.3057 7.80264C15.1199 7.80264 14.8722 7.5876 14.8722 7.00393V1.50519C14.8722 0.808887 14.6555 0.491455 14.0672 0.491455H9.70151C9.26804 0.491455 8.9997 0.808887 8.9997 1.13656C8.9997 1.80214 10.0008 1.96598 10.104 3.83985V7.90503C10.104 8.78565 9.93889 8.94949 9.58798 8.94949C8.64879 8.94949 6.35759 5.49869 4.98493 1.56663C4.71659 0.788408 4.44825 0.501695 3.74643 0.501695H0.939189C0.13417 0.501695 0 0.880565 0 1.27992C0 1.9967 0.939188 5.64205 4.39664 10.4445C6.68785 13.7314 9.94921 15.4927 12.8803 15.4927C14.6555 15.4927 14.8722 15.0933 14.8722 14.4278V11.9395C14.8722 11.1408 15.0373 11.0077 15.5947 11.0077C15.9972 11.0077 16.7299 11.2227 18.3709 12.7996C20.2596 14.6735 20.5796 15.5234 21.6323 15.5234H24.4086C25.2136 15.5234 25.5955 15.1241 25.3787 14.3458C25.1414 13.5676 24.2228 12.4515 23.0359 11.1101C22.3857 10.3626 21.4156 9.53315 21.1266 9.1338C20.7241 8.60134 20.8273 8.3863 21.1266 7.90503C21.0956 7.89479 24.4912 3.13331 24.8421 1.53591Z" fill="currentColor"/>
</svg>
